{"accessors" : [{"bufferView" : 0, "byteOffset" : 0, "componentType" : 5123, "count" : 1932, "type" : "SCALAR", "max" : [1295], "min" : [0]}, {"bufferView" : 1, "byteOffset" : 0, "componentType" : 5126, "count" : 1296, "type" : "VEC3", "max" : [-90.59600067138672, 437.44329833984375, -113.37936401367188], "min" : [-131.9020538330078, 368.7044982910156, -155.12135314941406]}, {"bufferView" : 1, "byteOffset" : 12, "componentType" : 5126, "count" : 1296, "type" : "VEC2", "max" : [1, 0], "min" : [0, -1]}, {"bufferView" : 1, "byteOffset" : 20, "componentType" : 5126, "count" : 1296, "type" : "VEC3", "max" : [0.9997673630714417, 0.9998794198036194, 0.9998096227645874], "min" : [-0.9997673630714417, -0.9998794198036194, -0.9998096227645874]}], "asset" : {"generator" : "Aspose.3D 21.1", "version" : "2.0"}, "buffers" : [{"uri" : "buffer.bin", "byteLength" : 65696}], "bufferViews" : [{"buffer" : 0, "byteOffset" : 0, "byteLength" : 3864, "target" : 34963}, {"buffer" : 0, "byteOffset" : 3868, "byteLength" : 61824, "byteStride" : 32, "target" : 34962}], "meshes" : [{"primitives" : [{"attributes" : {"POSITION" : 1, "TEXCOORD_0" : 2, "NORMAL" : 3}, "indices" : 0, "mode" : 4}]}], "nodes" : [{"mesh" : 0, "name" : "pCylinder9 colour_ballon"}], "scene" : 0, "scenes" : [{"nodes" : [0]}]}